<svg width="3085" height="1029" viewBox="0 0 3085 1029" fill="none" xmlns="http://www.w3.org/2000/svg">
<g clip-path="url(#clip0_8_18)">
<rect width="3084.51" height="1028.17" fill="#1ED760"/>
<path d="M420.324 396.362C437.849 396.362 454.931 397.466 471.572 399.675C488.213 401.737 503.16 405.345 516.414 410.499C529.668 415.506 540.565 422.354 549.107 431.043C557.648 439.731 562.728 450.555 564.348 463.514L513.101 477.652C513.101 469.994 510.45 463.662 505.148 458.655C499.994 453.5 493.073 449.524 484.384 446.726C475.843 443.781 465.976 441.719 454.784 440.541C443.592 439.363 432.105 438.774 420.324 438.774C408.985 438.774 397.719 439.363 386.527 440.541C375.482 441.572 365.542 443.56 356.706 446.505C348.018 449.303 340.949 453.206 335.5 458.213C330.199 463.22 327.548 469.699 327.548 477.652V504.601H564.348V581.031C564.348 589.719 562.434 597.451 558.605 604.225C554.776 610.852 549.475 616.669 542.701 621.676C535.926 626.535 527.901 630.732 518.623 634.267C509.493 637.654 499.552 640.378 488.802 642.44C478.199 644.502 467.007 645.974 455.226 646.858C443.592 647.741 431.958 648.183 420.324 648.183C402.505 648.183 385.276 647.152 368.635 645.091C351.994 642.882 337.047 639.274 323.793 634.267C310.539 629.112 299.642 622.265 291.1 613.723C282.706 605.035 277.773 594.137 276.3 581.031L327.548 566.893C327.548 574.993 330.199 581.546 335.5 586.553C340.949 591.56 348.018 595.463 356.706 598.261C365.542 601.059 375.482 602.973 386.527 604.004C397.719 604.888 408.985 605.329 420.324 605.329C432.105 605.329 443.592 604.814 454.784 603.783C465.976 602.605 475.843 600.617 484.384 597.819C493.073 594.874 499.994 590.971 505.148 586.111C510.45 581.104 513.101 574.698 513.101 566.893V539.944H276.3V463.514C276.3 454.826 278.215 447.168 282.044 440.541C285.872 433.767 291.1 427.95 297.727 423.09C304.501 418.083 312.454 413.886 321.584 410.499C330.714 406.965 340.581 404.167 351.184 402.105C361.934 400.044 373.126 398.571 384.76 397.687C396.541 396.804 408.396 396.362 420.324 396.362ZM623.99 409.616C628.114 408.438 634.151 406.965 642.104 405.198C650.203 403.431 659.775 401.811 670.82 400.338C681.865 398.718 694.161 397.393 707.71 396.362C721.405 395.184 736.058 394.595 751.668 394.595C779.353 394.595 803.726 396.657 824.784 400.78C845.99 404.903 863.736 411.898 878.02 421.765C892.305 431.632 903.055 444.738 910.271 461.084C917.634 477.431 921.316 497.827 921.316 522.273C921.316 546.277 917.34 566.378 909.387 582.577C901.435 598.629 890.538 611.514 876.695 621.234C862.852 630.953 846.653 637.875 828.098 641.998C809.543 646.121 789.662 648.183 768.456 648.183C751.079 648.183 734.953 647.152 720.08 645.091C705.206 643.029 692.026 639.642 680.539 634.929V732.123H623.99V409.616ZM754.319 441.867C744.746 441.867 736.205 442.161 728.695 442.75C721.332 443.339 714.631 444.149 708.593 445.18C702.703 446.064 697.475 447.168 692.91 448.493C688.344 449.671 684.221 450.997 680.539 452.47V593.843C686.872 595.61 692.762 597.083 698.211 598.261C703.807 599.292 709.771 600.101 716.104 600.691C722.583 601.28 729.946 601.721 738.193 602.016C746.587 602.163 756.675 602.237 768.456 602.237C785.833 602.237 800.633 600.249 812.856 596.273C825.226 592.149 835.314 586.553 843.119 579.485C851.071 572.416 856.888 564.022 860.569 554.302C864.251 544.436 866.092 533.759 866.092 522.273C866.092 506.663 863.588 493.703 858.581 483.395C853.574 473.086 846.285 464.84 836.713 458.655C827.141 452.47 815.433 448.125 801.59 445.622C787.747 443.118 771.99 441.867 754.319 441.867ZM1119.68 392.386C1132.05 392.386 1144.35 392.975 1156.57 394.153C1168.94 395.331 1180.79 397.246 1192.13 399.896C1203.47 402.547 1214.08 405.861 1223.94 409.837C1233.81 413.813 1242.35 418.599 1249.57 424.195C1256.93 429.791 1262.67 436.27 1266.8 443.634C1270.92 450.85 1272.98 458.949 1272.98 467.932V582.356C1272.98 590.308 1270.92 597.598 1266.8 604.225C1262.67 610.852 1256.93 616.816 1249.57 622.117C1242.35 627.272 1233.81 631.763 1223.94 635.592C1214.08 639.421 1203.47 642.587 1192.13 645.091C1180.79 647.594 1168.94 649.435 1156.57 650.613C1144.2 651.938 1131.9 652.601 1119.68 652.601C1107.46 652.601 1095.16 651.938 1082.79 650.613C1070.57 649.435 1058.79 647.594 1047.45 645.091C1036.11 642.587 1025.5 639.421 1015.64 635.592C1005.92 631.763 997.378 627.272 990.014 622.117C982.798 616.816 977.129 610.925 973.005 604.446C968.882 597.819 966.82 590.456 966.82 582.356V467.932C966.82 458.949 968.882 450.85 973.005 443.634C977.129 436.27 982.798 429.791 990.014 424.195C997.378 418.599 1005.92 413.813 1015.64 409.837C1025.5 405.861 1036.11 402.547 1047.45 399.896C1058.79 397.246 1070.57 395.331 1082.79 394.153C1095.16 392.975 1107.46 392.386 1119.68 392.386ZM1022.93 568.219C1022.93 574.993 1025.73 580.884 1031.32 585.891C1037.07 590.75 1044.5 594.874 1053.63 598.261C1062.76 601.5 1073.07 603.93 1084.56 605.55C1096.19 607.17 1107.9 607.98 1119.68 607.98C1132.05 607.98 1143.98 607.097 1155.47 605.329C1167.1 603.562 1177.41 601.059 1186.39 597.819C1195.37 594.432 1202.52 590.308 1207.82 585.449C1213.27 580.442 1215.99 574.698 1215.99 568.219V476.326C1215.99 469.994 1213.27 464.324 1207.82 459.317C1202.52 454.163 1195.37 449.892 1186.39 446.505C1177.41 442.971 1167.1 440.32 1155.47 438.553C1143.98 436.639 1132.05 435.681 1119.68 435.681C1107.9 435.681 1096.19 436.565 1084.56 438.332C1073.07 439.952 1062.76 442.456 1053.63 445.843C1044.5 449.23 1037.07 453.5 1031.32 458.655C1025.73 463.662 1022.93 469.552 1022.93 476.326V568.219ZM1399.33 393.269H1455.44V430.38H1399.33V648.183H1346.76V430.38H1305.23V393.269H1346.76V316.398H1399.33V393.269ZM1570.75 648.183H1514.64V396.362H1570.75V648.183ZM1542.92 308.887C1553.81 308.887 1562.43 310.728 1568.76 314.41C1575.09 317.944 1578.26 323.614 1578.26 331.419V342.463C1578.26 349.532 1575.09 354.613 1568.76 357.705C1562.43 360.798 1553.81 362.344 1542.92 362.344C1532.46 362.344 1523.99 360.798 1517.51 357.705C1511.18 354.613 1508.01 349.532 1508.01 342.463V331.419C1508.01 323.614 1511.18 317.944 1517.51 314.41C1523.99 310.728 1532.46 308.887 1542.92 308.887ZM1778.83 350.857C1772.8 350.857 1767.27 351.447 1762.27 352.625C1757.26 353.803 1752.84 355.644 1749.01 358.147C1745.33 360.503 1742.46 363.522 1740.4 367.204C1738.34 370.738 1737.3 374.861 1737.3 379.574V393.269H1794.3V430.38H1737.3V648.183H1679.87V430.38H1644.09V393.269H1679.87V385.759C1679.87 375.303 1682.08 365.584 1686.5 356.601C1690.92 347.618 1697.32 339.886 1705.72 333.407C1714.26 326.78 1724.64 321.626 1736.86 317.944C1749.09 314.262 1763.08 312.422 1778.83 312.422V350.857ZM1904.74 545.687C1904.74 553.934 1905.85 561.077 1908.06 567.114C1910.27 573.005 1913.28 578.086 1917.11 582.356C1920.94 586.48 1925.29 589.867 1930.15 592.517C1935.15 595.168 1940.38 597.23 1945.83 598.702C1951.28 600.028 1956.8 600.985 1962.4 601.574C1967.99 602.016 1973.37 602.237 1978.52 602.237C1997.23 602.237 2014.23 599.807 2029.55 594.947C2044.86 590.088 2058.49 584.123 2070.42 577.055V396.362L2127.41 400.78V659.228C2127.41 669.684 2125.2 679.403 2120.78 688.386C2116.36 697.369 2109.96 705.101 2101.56 711.58C2093.17 718.207 2082.86 723.361 2070.64 727.043C2058.41 730.724 2044.5 732.565 2028.89 732.565V694.129C2034.78 694.129 2040.23 693.54 2045.23 692.362C2050.24 691.184 2054.58 689.343 2058.27 686.84C2062.09 684.484 2065.04 681.465 2067.1 677.783C2069.31 674.249 2070.42 670.125 2070.42 665.413V619.025C2063.49 623.296 2056.43 627.198 2049.21 630.732C2042.14 634.267 2034.7 637.359 2026.9 640.01C2019.09 642.513 2010.92 644.502 2002.38 645.974C1993.84 647.447 1984.85 648.183 1975.43 648.183C1952.6 648.183 1933.09 646.342 1916.89 642.661C1900.69 638.832 1887.37 633.236 1876.91 625.873C1866.6 618.362 1859.02 609.085 1854.16 598.04C1849.3 586.995 1846.87 574.109 1846.87 559.383V400.78L1904.74 396.362V545.687ZM2248.46 573.962C2253.76 573.962 2258.99 574.404 2264.14 575.288C2269.44 576.171 2274.15 577.496 2278.28 579.264C2282.4 581.031 2285.71 583.313 2288.22 586.111C2290.87 588.909 2292.19 592.223 2292.19 596.052V628.302C2292.19 631.837 2290.87 634.856 2288.22 637.359C2285.71 639.863 2282.4 641.924 2278.28 643.544C2274.15 645.164 2269.44 646.342 2264.14 647.079C2258.99 647.815 2253.76 648.183 2248.46 648.183C2243.16 648.183 2237.93 647.815 2232.77 647.079C2227.62 646.342 2222.98 645.164 2218.86 643.544C2214.73 641.924 2211.42 639.863 2208.92 637.359C2206.41 634.856 2205.16 631.837 2205.16 628.302V596.052C2205.16 592.223 2206.41 588.909 2208.92 586.111C2211.42 583.313 2214.73 581.031 2218.86 579.264C2222.98 577.496 2227.62 576.171 2232.77 575.288C2237.93 574.404 2243.16 573.962 2248.46 573.962ZM2426.06 393.269H2482.16V430.38H2426.06V648.183H2373.48V430.38H2331.96V393.269H2373.48V316.398H2426.06V393.269ZM2673.9 396.362C2691.43 396.362 2708.51 397.466 2725.15 399.675C2741.79 401.737 2756.74 405.345 2769.99 410.499C2783.25 415.506 2794.14 422.354 2802.68 431.043C2811.23 439.731 2816.31 450.555 2817.93 463.514L2766.68 477.652C2766.68 469.994 2764.03 463.662 2758.73 458.655C2753.57 453.5 2746.65 449.524 2737.96 446.726C2729.42 443.781 2719.55 441.719 2708.36 440.541C2697.17 439.363 2685.68 438.774 2673.9 438.774C2662.56 438.774 2651.3 439.363 2640.11 440.541C2629.06 441.572 2619.12 443.56 2610.28 446.505C2601.6 449.303 2594.53 453.206 2589.08 458.213C2583.78 463.22 2581.13 469.699 2581.13 477.652V504.601H2817.93V581.031C2817.93 589.719 2816.01 597.451 2812.18 604.225C2808.35 610.852 2803.05 616.669 2796.28 621.676C2789.5 626.535 2781.48 630.732 2772.2 634.267C2763.07 637.654 2753.13 640.378 2742.38 642.44C2731.78 644.502 2720.58 645.974 2708.8 646.858C2697.17 647.741 2685.54 648.183 2673.9 648.183C2656.08 648.183 2638.85 647.152 2622.21 645.091C2605.57 642.882 2590.62 639.274 2577.37 634.267C2564.12 629.112 2553.22 622.265 2544.68 613.723C2536.28 605.035 2531.35 594.137 2529.88 581.031L2581.13 566.893C2581.13 574.993 2583.78 581.546 2589.08 586.553C2594.53 591.56 2601.6 595.463 2610.28 598.261C2619.12 601.059 2629.06 602.973 2640.11 604.004C2651.3 604.888 2662.56 605.329 2673.9 605.329C2685.68 605.329 2697.17 604.814 2708.36 603.783C2719.55 602.605 2729.42 600.617 2737.96 597.819C2746.65 594.874 2753.57 590.971 2758.73 586.111C2764.03 581.104 2766.68 574.698 2766.68 566.893V539.944H2529.88V463.514C2529.88 454.826 2531.79 447.168 2535.62 440.541C2539.45 433.767 2544.68 427.95 2551.31 423.09C2558.08 418.083 2566.03 413.886 2575.16 410.499C2584.29 406.965 2594.16 404.167 2604.76 402.105C2615.51 400.044 2626.7 398.571 2638.34 397.687C2650.12 396.804 2661.97 396.362 2673.9 396.362Z" fill="black"/>
</g>
<defs>
<clipPath id="clip0_8_18">
<rect width="3084.51" height="1028.17" fill="white"/>
</clipPath>
</defs>
</svg>
