<svg width="3086" height="1029" viewBox="0 0 3086 1029" fill="none" xmlns="http://www.w3.org/2000/svg">
<g clip-path="url(#clip0_8_4)">
<path d="M421.057 396.362C438.581 396.362 455.664 397.466 472.305 399.675C488.945 401.737 503.893 405.345 517.146 410.499C530.4 415.506 541.298 422.354 549.839 431.043C558.38 439.731 563.461 450.555 565.081 463.514L513.833 477.652C513.833 469.994 511.182 463.662 505.881 458.655C500.726 453.5 493.805 449.524 485.116 446.726C476.575 443.781 466.709 441.719 455.516 440.541C444.324 439.363 432.838 438.774 421.057 438.774C409.717 438.774 398.452 439.363 387.26 440.541C376.215 441.572 366.275 443.56 357.439 446.505C348.75 449.303 341.682 453.206 336.233 458.213C330.931 463.22 328.281 469.699 328.281 477.652V504.601H565.081V581.031C565.081 589.719 563.166 597.451 559.337 604.225C555.509 610.852 550.207 616.669 543.433 621.676C536.659 626.535 528.633 630.732 519.355 634.267C510.225 637.654 500.285 640.378 489.534 642.44C478.931 644.502 467.739 645.974 455.958 646.858C444.324 647.741 432.691 648.183 421.057 648.183C403.238 648.183 386.008 647.152 369.367 645.091C352.726 642.882 337.779 639.274 324.525 634.267C311.272 629.112 300.374 622.265 291.833 613.723C283.439 605.035 278.505 594.137 277.033 581.031L328.281 566.893C328.281 574.993 330.931 581.546 336.233 586.553C341.682 591.56 348.75 595.463 357.439 598.261C366.275 601.059 376.215 602.973 387.26 604.004C398.452 604.888 409.717 605.329 421.057 605.329C432.838 605.329 444.324 604.814 455.516 603.783C466.709 602.605 476.575 600.617 485.116 597.819C493.805 594.874 500.726 590.971 505.881 586.111C511.182 581.104 513.833 574.698 513.833 566.893V539.944H277.033V463.514C277.033 454.826 278.947 447.168 282.776 440.541C286.605 433.767 291.833 427.95 298.46 423.09C305.234 418.083 313.186 413.886 322.316 410.499C331.447 406.965 341.313 404.167 351.916 402.105C362.667 400.044 373.859 398.571 385.493 397.687C397.274 396.804 409.128 396.362 421.057 396.362ZM624.723 409.616C628.846 408.438 634.884 406.965 642.836 405.198C650.936 403.431 660.508 401.811 671.552 400.338C682.597 398.718 694.894 397.393 708.442 396.362C722.138 395.184 736.79 394.595 752.4 394.595C780.086 394.595 804.458 396.657 825.517 400.78C846.723 404.903 864.468 411.898 878.753 421.765C893.037 431.632 903.787 444.738 911.003 461.084C918.367 477.431 922.048 497.827 922.048 522.273C922.048 546.277 918.072 566.378 910.12 582.577C902.168 598.629 891.27 611.514 877.427 621.234C863.584 630.953 847.385 637.875 828.83 641.998C810.275 646.121 790.394 648.183 769.188 648.183C751.811 648.183 735.686 647.152 720.812 645.091C705.939 643.029 692.758 639.642 681.272 634.929V732.123H624.723V409.616ZM755.051 441.867C745.479 441.867 736.938 442.161 729.427 442.75C722.064 443.339 715.363 444.149 709.326 445.18C703.435 446.064 698.207 447.168 693.642 448.493C689.077 449.671 684.953 450.997 681.272 452.47V593.843C687.604 595.61 693.495 597.083 698.944 598.261C704.54 599.292 710.504 600.101 716.836 600.691C723.316 601.28 730.679 601.721 738.926 602.016C747.32 602.163 757.407 602.237 769.188 602.237C786.565 602.237 801.366 600.249 813.588 596.273C825.959 592.149 836.046 586.553 843.851 579.485C851.803 572.416 857.62 564.022 861.302 554.302C864.983 544.436 866.824 533.759 866.824 522.273C866.824 506.663 864.321 493.703 859.314 483.395C854.307 473.086 847.017 464.84 837.445 458.655C827.873 452.47 816.166 448.125 802.323 445.622C788.48 443.118 772.723 441.867 755.051 441.867ZM1120.41 392.386C1132.78 392.386 1145.08 392.975 1157.3 394.153C1169.67 395.331 1181.53 397.246 1192.87 399.896C1204.21 402.547 1214.81 405.861 1224.68 409.837C1234.54 413.813 1243.08 418.599 1250.3 424.195C1257.66 429.791 1263.41 436.27 1267.53 443.634C1271.65 450.85 1273.71 458.949 1273.71 467.932V582.356C1273.71 590.308 1271.65 597.598 1267.53 604.225C1263.41 610.852 1257.66 616.816 1250.3 622.117C1243.08 627.272 1234.54 631.763 1224.68 635.592C1214.81 639.421 1204.21 642.587 1192.87 645.091C1181.53 647.594 1169.67 649.435 1157.3 650.613C1144.93 651.938 1132.64 652.601 1120.41 652.601C1108.19 652.601 1095.89 651.938 1083.52 650.613C1071.3 649.435 1059.52 647.594 1048.18 645.091C1036.84 642.587 1026.24 639.421 1016.37 635.592C1006.65 631.763 998.11 627.272 990.747 622.117C983.531 616.816 977.861 610.925 973.738 604.446C969.614 597.819 967.553 590.456 967.553 582.356V467.932C967.553 458.949 969.614 450.85 973.738 443.634C977.861 436.27 983.531 429.791 990.747 424.195C998.11 418.599 1006.65 413.813 1016.37 409.837C1026.24 405.861 1036.84 402.547 1048.18 399.896C1059.52 397.246 1071.3 395.331 1083.52 394.153C1095.89 392.975 1108.19 392.386 1120.41 392.386ZM1023.66 568.219C1023.66 574.993 1026.46 580.884 1032.05 585.891C1037.8 590.75 1045.23 594.874 1054.36 598.261C1063.5 601.5 1073.8 603.93 1085.29 605.55C1096.92 607.17 1108.63 607.98 1120.41 607.98C1132.78 607.98 1144.71 607.097 1156.2 605.329C1167.83 603.562 1178.14 601.059 1187.12 597.819C1196.11 594.432 1203.25 590.308 1208.55 585.449C1214 580.442 1216.72 574.698 1216.72 568.219V476.326C1216.72 469.994 1214 464.324 1208.55 459.317C1203.25 454.163 1196.11 449.892 1187.12 446.505C1178.14 442.971 1167.83 440.32 1156.2 438.553C1144.71 436.639 1132.78 435.681 1120.41 435.681C1108.63 435.681 1096.92 436.565 1085.29 438.332C1073.8 439.952 1063.5 442.456 1054.36 445.843C1045.23 449.23 1037.8 453.5 1032.05 458.655C1026.46 463.662 1023.66 469.552 1023.66 476.326V568.219ZM1400.07 393.269H1456.17V430.38H1400.07V648.183H1347.49V430.38H1305.96V393.269H1347.49V316.398H1400.07V393.269ZM1571.48 648.183H1515.37V396.362H1571.48V648.183ZM1543.65 308.887C1554.55 308.887 1563.16 310.728 1569.49 314.41C1575.83 317.944 1578.99 323.614 1578.99 331.419V342.463C1578.99 349.532 1575.83 354.613 1569.49 357.705C1563.16 360.798 1554.55 362.344 1543.65 362.344C1533.19 362.344 1524.73 360.798 1518.25 357.705C1511.91 354.613 1508.75 349.532 1508.75 342.463V331.419C1508.75 323.614 1511.91 317.944 1518.25 314.41C1524.73 310.728 1533.19 308.887 1543.65 308.887ZM1779.57 350.857C1773.53 350.857 1768.01 351.447 1763 352.625C1757.99 353.803 1753.57 355.644 1749.74 358.147C1746.06 360.503 1743.19 363.522 1741.13 367.204C1739.07 370.738 1738.04 374.861 1738.04 379.574V393.269H1795.03V430.38H1738.04V648.183H1680.6V430.38H1644.82V393.269H1680.6V385.759C1680.6 375.303 1682.81 365.584 1687.23 356.601C1691.65 347.618 1698.05 339.886 1706.45 333.407C1714.99 326.78 1725.37 321.626 1737.6 317.944C1749.82 314.262 1763.81 312.422 1779.57 312.422V350.857ZM1905.48 545.687C1905.48 553.934 1906.58 561.077 1908.79 567.114C1911 573.005 1914.02 578.086 1917.85 582.356C1921.67 586.48 1926.02 589.867 1930.88 592.517C1935.89 595.168 1941.11 597.23 1946.56 598.702C1952.01 600.028 1957.53 600.985 1963.13 601.574C1968.73 602.016 1974.1 602.237 1979.26 602.237C1997.96 602.237 2014.97 599.807 2030.28 594.947C2045.6 590.088 2059.22 584.123 2071.15 577.055V396.362L2128.14 400.78V659.228C2128.14 669.684 2125.93 679.403 2121.51 688.386C2117.09 697.369 2110.69 705.101 2102.29 711.58C2093.9 718.207 2083.59 723.361 2071.37 727.043C2059.15 730.724 2045.23 732.565 2029.62 732.565V694.129C2035.51 694.129 2040.96 693.54 2045.97 692.362C2050.97 691.184 2055.32 689.343 2059 686.84C2062.83 684.484 2065.77 681.465 2067.83 677.783C2070.04 674.249 2071.15 670.125 2071.15 665.413V619.025C2064.23 623.296 2057.16 627.198 2049.94 630.732C2042.87 634.267 2035.44 637.359 2027.63 640.01C2019.83 642.513 2011.65 644.502 2003.11 645.974C1994.57 647.447 1985.59 648.183 1976.16 648.183C1953.34 648.183 1933.82 646.342 1917.63 642.661C1901.43 638.832 1888.1 633.236 1877.64 625.873C1867.33 618.362 1859.75 609.085 1854.89 598.04C1850.03 586.995 1847.6 574.109 1847.6 559.383V400.78L1905.48 396.362V545.687ZM2249.19 573.962C2254.49 573.962 2259.72 574.404 2264.87 575.288C2270.17 576.171 2274.89 577.496 2279.01 579.264C2283.13 581.031 2286.45 583.313 2288.95 586.111C2291.6 588.909 2292.93 592.223 2292.93 596.052V628.302C2292.93 631.837 2291.6 634.856 2288.95 637.359C2286.45 639.863 2283.13 641.924 2279.01 643.544C2274.89 645.164 2270.17 646.342 2264.87 647.079C2259.72 647.815 2254.49 648.183 2249.19 648.183C2243.89 648.183 2238.66 647.815 2233.51 647.079C2228.35 646.342 2223.71 645.164 2219.59 643.544C2215.47 641.924 2212.15 639.863 2209.65 637.359C2207.15 634.856 2205.89 631.837 2205.89 628.302V596.052C2205.89 592.223 2207.15 588.909 2209.65 586.111C2212.15 583.313 2215.47 581.031 2219.59 579.264C2223.71 577.496 2228.35 576.171 2233.51 575.288C2238.66 574.404 2243.89 573.962 2249.19 573.962ZM2426.79 393.269H2482.9V430.38H2426.79V648.183H2374.22V430.38H2332.69V393.269H2374.22V316.398H2426.79V393.269ZM2674.63 396.362C2692.16 396.362 2709.24 397.466 2725.88 399.675C2742.52 401.737 2757.47 405.345 2770.72 410.499C2783.98 415.506 2794.88 422.354 2803.42 431.043C2811.96 439.731 2817.04 450.555 2818.66 463.514L2767.41 477.652C2767.41 469.994 2764.76 463.662 2759.46 458.655C2754.3 453.5 2747.38 449.524 2738.69 446.726C2730.15 443.781 2720.29 441.719 2709.09 440.541C2697.9 439.363 2686.42 438.774 2674.63 438.774C2663.3 438.774 2652.03 439.363 2640.84 440.541C2629.79 441.572 2619.85 443.56 2611.02 446.505C2602.33 449.303 2595.26 453.206 2589.81 458.213C2584.51 463.22 2581.86 469.699 2581.86 477.652V504.601H2818.66V581.031C2818.66 589.719 2816.74 597.451 2812.92 604.225C2809.09 610.852 2803.78 616.669 2797.01 621.676C2790.24 626.535 2782.21 630.732 2772.93 634.267C2763.8 637.654 2753.86 640.378 2743.11 642.44C2732.51 644.502 2721.32 645.974 2709.54 646.858C2697.9 647.741 2686.27 648.183 2674.63 648.183C2656.82 648.183 2639.59 647.152 2622.95 645.091C2606.3 642.882 2591.36 639.274 2578.1 634.267C2564.85 629.112 2553.95 622.265 2545.41 613.723C2537.02 605.035 2532.08 594.137 2530.61 581.031L2581.86 566.893C2581.86 574.993 2584.51 581.546 2589.81 586.553C2595.26 591.56 2602.33 595.463 2611.02 598.261C2619.85 601.059 2629.79 602.973 2640.84 604.004C2652.03 604.888 2663.3 605.329 2674.63 605.329C2686.42 605.329 2697.9 604.814 2709.09 603.783C2720.29 602.605 2730.15 600.617 2738.69 597.819C2747.38 594.874 2754.3 590.971 2759.46 586.111C2764.76 581.104 2767.41 574.698 2767.41 566.893V539.944H2530.61V463.514C2530.61 454.826 2532.53 447.168 2536.35 440.541C2540.18 433.767 2545.41 427.95 2552.04 423.09C2558.81 418.083 2566.76 413.886 2575.89 410.499C2585.02 406.965 2594.89 404.167 2605.49 402.105C2616.24 400.044 2627.44 398.571 2639.07 397.687C2650.85 396.804 2662.71 396.362 2674.63 396.362Z" fill="#1ED760"/>
</g>
<defs>
<clipPath id="clip0_8_4">
<rect width="3084.51" height="1028.17" fill="white" transform="translate(0.732422)"/>
</clipPath>
</defs>
</svg>
