<svg width="1441" height="1440" viewBox="0 0 1441 1440" fill="none" xmlns="http://www.w3.org/2000/svg">
<g clip-path="url(#clip0_8_8)">
<path d="M385.573 602.925C403.097 602.925 420.18 604.03 436.821 606.239C453.461 608.301 468.409 611.909 481.662 617.063C494.916 622.07 505.814 628.918 514.355 637.606C522.896 646.295 527.977 657.119 529.597 670.078L478.349 684.215C478.349 676.557 475.698 670.225 470.397 665.218C465.243 660.064 458.321 656.088 449.633 653.29C441.091 650.344 431.225 648.283 420.033 647.105C408.841 645.927 397.354 645.337 385.573 645.337C374.234 645.337 362.968 645.927 351.776 647.105C340.731 648.135 330.791 650.124 321.955 653.069C313.266 655.867 306.198 659.769 300.749 664.776C295.447 669.783 292.797 676.263 292.797 684.215V711.164H529.597V787.594C529.597 796.283 527.682 804.014 523.854 810.788C520.025 817.415 514.723 823.232 507.949 828.239C501.175 833.099 493.149 837.296 483.871 840.83C474.741 844.217 464.801 846.942 454.051 849.003C443.448 851.065 432.255 852.538 420.474 853.421C408.841 854.305 397.207 854.747 385.573 854.747C367.754 854.747 350.524 853.716 333.883 851.654C317.242 849.445 302.295 845.837 289.041 840.83C275.788 835.676 264.89 828.828 256.349 820.287C247.955 811.598 243.021 800.701 241.549 787.594L292.797 773.457C292.797 781.556 295.447 788.11 300.749 793.117C306.198 798.124 313.266 802.026 321.955 804.824C330.791 807.622 340.731 809.537 351.776 810.567C362.968 811.451 374.234 811.893 385.573 811.893C397.354 811.893 408.841 811.377 420.033 810.347C431.225 809.168 441.091 807.18 449.633 804.382C458.321 801.437 465.243 797.535 470.397 792.675C475.698 787.668 478.349 781.262 478.349 773.457V746.508H241.549V670.078C241.549 661.389 243.463 653.731 247.292 647.105C251.121 640.33 256.349 634.514 262.976 629.654C269.75 624.647 277.702 620.45 286.832 617.063C295.963 613.528 305.829 610.73 316.432 608.669C327.183 606.607 338.375 605.134 350.009 604.251C361.79 603.367 373.644 602.925 385.573 602.925ZM639.603 780.526C644.904 780.526 650.132 780.967 655.286 781.851C660.588 782.735 665.3 784.06 669.424 785.827C673.547 787.594 676.861 789.877 679.364 792.675C682.015 795.473 683.34 798.786 683.34 802.615V834.866C683.34 838.4 682.015 841.419 679.364 843.923C676.861 846.426 673.547 848.488 669.424 850.108C665.3 851.728 660.588 852.906 655.286 853.642C650.132 854.378 644.904 854.747 639.603 854.747C634.301 854.747 629.074 854.378 623.919 853.642C618.765 852.906 614.126 851.728 610.003 850.108C605.879 848.488 602.566 846.426 600.063 843.923C597.559 841.419 596.307 838.4 596.307 834.866V802.615C596.307 798.786 597.559 795.473 600.063 792.675C602.566 789.877 605.879 787.594 610.003 785.827C614.126 784.06 618.765 782.735 623.919 781.851C629.074 780.967 634.301 780.526 639.603 780.526ZM817.203 599.833H873.311V636.943H817.203V854.747H764.63V636.943H723.101V599.833H764.63V522.961H817.203V599.833ZM1065.05 602.925C1082.57 602.925 1099.66 604.03 1116.3 606.239C1132.94 608.301 1147.88 611.909 1161.14 617.063C1174.39 622.07 1185.29 628.918 1193.83 637.606C1202.37 646.295 1207.45 657.119 1209.07 670.078L1157.82 684.215C1157.82 676.557 1155.17 670.225 1149.87 665.218C1144.72 660.064 1137.8 656.088 1129.11 653.29C1120.57 650.344 1110.7 648.283 1099.51 647.105C1088.32 645.927 1076.83 645.337 1065.05 645.337C1053.71 645.337 1042.44 645.927 1031.25 647.105C1020.21 648.135 1010.27 650.124 1001.43 653.069C992.742 655.867 985.673 659.769 980.224 664.776C974.923 669.783 972.272 676.263 972.272 684.215V711.164H1209.07V787.594C1209.07 796.283 1207.16 804.014 1203.33 810.788C1199.5 817.415 1194.2 823.232 1187.42 828.239C1180.65 833.099 1172.62 837.296 1163.35 840.83C1154.22 844.217 1144.28 846.942 1133.53 849.003C1122.92 851.065 1111.73 852.538 1099.95 853.421C1088.32 854.305 1076.68 854.747 1065.05 854.747C1047.23 854.747 1030 853.716 1013.36 851.654C996.718 849.445 981.77 845.837 968.517 840.83C955.263 835.676 944.365 828.828 935.824 820.287C927.43 811.598 922.497 800.701 921.024 787.594L972.272 773.457C972.272 781.556 974.923 788.11 980.224 793.117C985.673 798.124 992.742 802.026 1001.43 804.824C1010.27 807.622 1020.21 809.537 1031.25 810.567C1042.44 811.451 1053.71 811.893 1065.05 811.893C1076.83 811.893 1088.32 811.377 1099.51 810.347C1110.7 809.168 1120.57 807.18 1129.11 804.382C1137.8 801.437 1144.72 797.535 1149.87 792.675C1155.17 787.668 1157.82 781.262 1157.82 773.457V746.508H921.024V670.078C921.024 661.389 922.938 653.731 926.767 647.105C930.596 640.33 935.824 634.514 942.451 629.654C949.225 624.647 957.177 620.45 966.308 617.063C975.438 613.528 985.305 610.73 995.908 608.669C1006.66 606.607 1017.85 605.134 1029.48 604.251C1041.26 603.367 1053.12 602.925 1065.05 602.925Z" fill="#1ED760"/>
</g>
<defs>
<clipPath id="clip0_8_8">
<rect width="1439.44" height="1439.44" fill="white" transform="translate(0.732422 0.563477)"/>
</clipPath>
</defs>
</svg>
