<svg width="1440" height="1440" viewBox="0 0 1440 1440" fill="none" xmlns="http://www.w3.org/2000/svg">
<g clip-path="url(#clip0_8_20)">
<rect y="0.563477" width="1439.44" height="1439.44" fill="#1ED760"/>
<path d="M384.84 602.925C402.365 602.925 419.447 604.03 436.088 606.239C452.729 608.301 467.676 611.909 480.93 617.063C494.184 622.07 505.081 628.918 513.623 637.606C522.164 646.295 527.245 657.119 528.864 670.078L477.617 684.215C477.617 676.557 474.966 670.225 469.664 665.218C464.51 660.064 457.589 656.088 448.9 653.29C440.359 650.344 430.492 648.283 419.3 647.105C408.108 645.927 396.622 645.337 384.84 645.337C373.501 645.337 362.235 645.927 351.043 647.105C339.999 648.135 330.058 650.124 321.222 653.069C312.534 655.867 305.465 659.769 300.016 664.776C294.715 669.783 292.064 676.263 292.064 684.215V711.164H528.864V787.594C528.864 796.283 526.95 804.014 523.121 810.788C519.292 817.415 513.991 823.232 507.217 828.239C500.443 833.099 492.417 837.296 483.139 840.83C474.009 844.217 464.068 846.942 453.318 849.003C442.715 851.065 431.523 852.538 419.742 853.421C408.108 854.305 396.474 854.747 384.84 854.747C367.022 854.747 349.792 853.716 333.151 851.654C316.51 849.445 301.563 845.837 288.309 840.83C275.055 835.676 264.158 828.828 255.616 820.287C247.222 811.598 242.289 800.701 240.816 787.594L292.064 773.457C292.064 781.556 294.715 788.11 300.016 793.117C305.465 798.124 312.534 802.026 321.222 804.824C330.058 807.622 339.999 809.537 351.043 810.567C362.235 811.451 373.501 811.893 384.84 811.893C396.622 811.893 408.108 811.377 419.3 810.347C430.492 809.168 440.359 807.18 448.9 804.382C457.589 801.437 464.51 797.535 469.664 792.675C474.966 787.668 477.617 781.262 477.617 773.457V746.508H240.816V670.078C240.816 661.389 242.731 653.731 246.56 647.105C250.389 640.33 255.616 634.514 262.243 629.654C269.017 624.647 276.97 620.45 286.1 617.063C295.23 613.528 305.097 610.73 315.7 608.669C326.45 606.607 337.642 605.134 349.276 604.251C361.057 603.367 372.912 602.925 384.84 602.925ZM638.87 780.526C644.172 780.526 649.4 780.967 654.554 781.851C659.856 782.735 664.568 784.06 668.691 785.827C672.815 787.594 676.128 789.877 678.632 792.675C681.282 795.473 682.608 798.786 682.608 802.615V834.866C682.608 838.4 681.282 841.419 678.632 843.923C676.128 846.426 672.815 848.488 668.691 850.108C664.568 851.728 659.856 852.906 654.554 853.642C649.4 854.378 644.172 854.747 638.87 854.747C633.569 854.747 628.341 854.378 623.187 853.642C618.033 852.906 613.394 851.728 609.27 850.108C605.147 848.488 601.834 846.426 599.33 843.923C596.827 841.419 595.575 838.4 595.575 834.866V802.615C595.575 798.786 596.827 795.473 599.33 792.675C601.834 789.877 605.147 787.594 609.27 785.827C613.394 784.06 618.033 782.735 623.187 781.851C628.341 780.967 633.569 780.526 638.87 780.526ZM816.471 599.833H872.578V636.943H816.471V854.747H763.897V636.943H722.369V599.833H763.897V522.961H816.471V599.833ZM1064.32 602.925C1081.84 602.925 1098.92 604.03 1115.56 606.239C1132.2 608.301 1147.15 611.909 1160.41 617.063C1173.66 622.07 1184.56 628.918 1193.1 637.606C1201.64 646.295 1206.72 657.119 1208.34 670.078L1157.09 684.215C1157.09 676.557 1154.44 670.225 1149.14 665.218C1143.99 660.064 1137.06 656.088 1128.38 653.29C1119.83 650.344 1109.97 648.283 1098.78 647.105C1087.58 645.927 1076.1 645.337 1064.32 645.337C1052.98 645.337 1041.71 645.927 1030.52 647.105C1019.47 648.135 1009.53 650.124 1000.7 653.069C992.009 655.867 984.94 659.769 979.492 664.776C974.19 669.783 971.539 676.263 971.539 684.215V711.164H1208.34V787.594C1208.34 796.283 1206.43 804.014 1202.6 810.788C1198.77 817.415 1193.47 823.232 1186.69 828.239C1179.92 833.099 1171.89 837.296 1162.61 840.83C1153.48 844.217 1143.54 846.942 1132.79 849.003C1122.19 851.065 1111 852.538 1099.22 853.421C1087.58 854.305 1075.95 854.747 1064.32 854.747C1046.5 854.747 1029.27 853.716 1012.63 851.654C995.985 849.445 981.038 845.837 967.784 840.83C954.53 835.676 943.633 828.828 935.092 820.287C926.698 811.598 921.764 800.701 920.292 787.594L971.539 773.457C971.539 781.556 974.19 788.11 979.492 793.117C984.94 798.124 992.009 802.026 1000.7 804.824C1009.53 807.622 1019.47 809.537 1030.52 810.567C1041.71 811.451 1052.98 811.893 1064.32 811.893C1076.1 811.893 1087.58 811.377 1098.78 810.347C1109.97 809.168 1119.83 807.18 1128.38 804.382C1137.06 801.437 1143.99 797.535 1149.14 792.675C1154.44 787.668 1157.09 781.262 1157.09 773.457V746.508H920.292V670.078C920.292 661.389 922.206 653.731 926.035 647.105C929.864 640.33 935.092 634.514 941.719 629.654C948.493 624.647 956.445 620.45 965.575 617.063C974.706 613.528 984.572 610.73 995.175 608.669C1005.93 606.607 1017.12 605.134 1028.75 604.251C1040.53 603.367 1052.39 602.925 1064.32 602.925Z" fill="black"/>
</g>
<defs>
<clipPath id="clip0_8_20">
<rect y="0.563477" width="1439.44" height="1439.44" fill="white"/>
</clipPath>
</defs>
</svg>
